:FULLY-SPECIFIED
:FORCE-ALL-JOINTS-BE-3DOF
:DEGREES
34
root 5.98444 16.8966 -28.0789 9.97465 -1.99824 -2.09495
lfemur -19.328 0.566202 -19.8731
ltibia 32.7255 0 0
lfoot -36.6763 5.36822 0
ltoes 36.2319 0 0
rfemur -16.8083 6.82567 19.3721
rtibia 30.5138 0 0
rfoot -27.4078 -18.4754 0
rtoes 14.3062 0 0
lowerback -5.56359 2.43247 -1.06056
upperback -1.88785 3.2841 0.72055
thorax 1.07084 1.64621 1.53913
lowerneck -9.55597 -1.56357 2.7764
upperneck -2.60478 -2.36221 0.678058
head 0.752149 -1.18666 -0.332898
lclavicle 3.04349e-14 1.27292e-14 0
lhumerus -41.5852 -12.5429 96.8281
lradius 38.5416 0 0
lwrist 5.59313 0 0
lhand -11.6496 3.9912 0
lfingers 7.12502 0 0
lthumb 14.3947 33.4718 0
rclavicle 3.04349e-14 1.27292e-14 0
rhumerus -40.5905 -5.44586 -88.8347
rradius 39.0445 0 0
rwrist 11.0293 0 0
rhand -27.0734 -19.9602 0
rfingers 7.12502 0 0
rthumb -0.491018 -49.941 0
35
root 5.97729 16.8968 -28.0795 9.99809 -1.98584 -2.05971
lfemur -19.3184 0.507011 -19.8799
ltibia 32.6669 0 0
lfoot -36.6376 5.42051 0
ltoes 36.1003 0 0
rfemur -16.8186 6.81763 19.3585
rtibia 30.4913 0 0
rfoot -27.3694 -18.5141 0
rtoes 14.0075 0 0
lowerback -5.62009 2.41005 -0.967984
upperback -1.87043 3.25018 0.634863
thorax 1.13096 1.62849 1.40082
lowerneck -9.54418 -1.54664 2.81671
upperneck -2.63069 -2.34355 0.750015
head 0.742346 -1.17687 -0.316359
lclavicle 2.5422e-14 1.17875e-14 0
lhumerus -41.5732 -12.6274 96.7862
lradius 38.7669 0 0
lwrist 5.74074 0 0
lhand -11.6886 3.9148 0
lfingers 7.12502 0 0
lthumb 14.357 33.3981 0
rclavicle 2.5422e-14 1.17875e-14 0
rhumerus -40.5388 -5.46152 -88.9548
rradius 38.9883 0 0
rwrist 11.0476 0 0
rhand -27.0404 -20.0024 0
rfingers 7.12502 0 0
rthumb -0.459144 -49.9832 0
36
root 5.97015 16.897 -28.0802 10.0219 -1.96627 -2.02837
lfemur -19.3332 0.47402 -19.8842
ltibia 32.6432 0 0
lfoot -36.5767 5.44003 0
ltoes 35.9711 0 0
rfemur -16.8309 6.7944 19.3491
rtibia 30.4725 0 0
rfoot -27.3334 -18.5464 0
rtoes 13.6856 0 0
lowerback -5.67002 2.38875 -0.873376
upperback -1.85312 3.21767 0.551711
thorax 1.18708 1.61158 1.26372
lowerneck -9.53348 -1.53192 2.85398
upperneck -2.65981 -2.32744 0.820867
head 0.731742 -1.16839 -0.299736
lclavicle 2.05489e-14 1.08448e-14 0
lhumerus -41.5597 -12.7092 96.7432
lradius 38.9914 0 0
lwrist 5.88494 0 0
lhand -11.7252 3.84104 0
lfingers 7.12502 0 0
lthumb 14.3218 33.3269 0
rclavicle 2.05489e-14 1.08448e-14 0
rhumerus -40.4888 -5.46552 -89.0739
rradius 38.94 0 0
rwrist 11.0584 0 0
rhand -27.0035 -20.0479 0
rfingers 7.12502 0 0
rthumb -0.42351 -50.0286 0
37
root 5.963 16.8973 -28.0809 10.0461 -1.93835 -2.00159
lfemur -19.3763 0.471543 -19.8856
ltibia 32.6597 0 0
lfoot -36.4899 5.42137 0
ltoes 35.8453 0 0
rfemur -16.8446 6.75548 19.3447
rtibia 30.4565 0 0
rfoot -27.2997 -18.5732 0
rtoes 13.3375 0 0
lowerback -5.71278 2.36862 -0.776138
upperback -1.83588 3.18664 0.47152
thorax 1.23896 1.59547 1.12793
lowerneck -9.52409 -1.51973 2.88756
upperneck -2.69277 -2.31419 0.890423
head 0.720179 -1.16137 -0.282985
lclavicle 1.58997e-14 9.92416e-15 0
lhumerus -41.5444 -12.7875 96.6984
lradius 39.2139 0 0
lwrist 6.02478 0 0
lhand -11.7589 3.76943 0
lfingers 7.12502 0 0
lthumb 14.2894 33.2576 0
rclavicle 1.58997e-14 9.92416e-15 0
rhumerus -40.4404 -5.456 -89.1922
rradius 38.9012 0 0
rwrist 11.0607 0 0
rhand -26.9634 -20.0961 0
rfingers 7.12502 0 0
rthumb -0.384728 -50.0766 0
38
root 5.95585 16.8975 -28.0815 10.0709 -1.90088 -1.98008
lfemur -19.4514 0.503892 -19.8837
ltibia 32.7218 0 0
lfoot -36.3734 5.35913 0
ltoes 35.7237 0 0
rfemur -16.8592 6.70039 19.346
rtibia 30.4427 0 0
rfoot -27.2683 -18.5953 0
rtoes 12.9602 0 0
lowerback -5.74779 2.3497 -0.675673
upperback -1.81866 3.15714 0.394719
thorax 1.28638 1.58017 0.99356
lowerneck -9.51621 -1.51033 2.91682
upperneck -2.7302 -2.3041 0.958493
head 0.707501 -1.15599 -0.266067
lclavicle 1.15585e-14 9.04879e-15 0
lhumerus -41.5273 -12.8618 96.6512
lradius 39.4333 0 0
lwrist 6.15927 0 0
lhand -11.7891 3.6995 0
lfingers 7.12502 0 0
lthumb 14.2602 33.1898 0
rclavicle 1.15585e-14 9.04879e-15 0
rhumerus -40.3936 -5.43107 -89.3097
rradius 38.8733 0 0
rwrist 11.0532 0 0
rhand -26.9206 -20.1463 0
rfingers 7.12502 0 0
rthumb -0.343406 -50.1267 0
39
root 5.94871 16.8977 -28.0822 10.0963 -1.85265 -1.96452
lfemur -19.5622 0.575381 -19.8779
ltibia 32.8346 0 0
lfoot -36.2233 5.2479 0
ltoes 35.6071 0 0
rfemur -16.874 6.62865 19.3538
rtibia 30.4302 0 0
rfoot -27.2391 -18.6136 0
rtoes 12.5508 0 0
lowerback -5.77445 2.33203 -0.571383
upperback -1.80143 3.12924 0.321733
thorax 1.32911 1.56568 0.860702
lowerneck -9.51006 -1.50403 2.94111
upperneck -2.77272 -2.29748 1.02488
head 0.693554 -1.15238 -0.248938
lclavicle 7.60935e-15 8.24186e-15 0
lhumerus -41.508 -12.9311 96.6008
lradius 39.6485 0 0
lwrist 6.28744 0 0
lhand -11.8154 3.63075 0
lfingers 7.12502 0 0
lthumb 14.2349 33.1228 0
rclavicle 7.60935e-15 8.24186e-15 0
rhumerus -40.3485 -5.38888 -89.4263
rradius 38.8577 0 0
rwrist 11.035 0 0
rhand -26.8758 -20.198 0
rfingers 7.12502 0 0
rthumb -0.300154 -50.1782 0
40
root 5.94156 16.898 -28.0828 10.1225 -1.79247 -1.9556
lfemur -19.7125 0.690323 -19.8678
ltibia 33.0036 0 0
lfoot -36.0358 5.08229 0
ltoes 35.4964 0 0
rfemur -16.8886 6.53979 19.3689
rtibia 30.4183 0 0
rfoot -27.2119 -18.6291 0
rtoes 12.1062 0 0
lowerback -5.79219 2.31564 -0.462673
upperback -1.78414 3.10298 0.252991
thorax 1.36692 1.55201 0.729463
lowerneck -9.50584 -1.50111 2.9598
upperneck -2.82096 -2.29465 1.0894
head 0.67818 -1.15073 -0.231557
lclavicle 4.13641e-15 7.52657e-15 0
lhumerus -41.4864 -12.9947 96.5466
lradius 39.8584 0 0
lwrist 6.40833 0 0
lhand -11.8374 3.56272 0
lfingers 7.12502 0 0
lthumb 14.2137 33.0563 0
rclavicle 4.13641e-15 7.52657e-15 0
rhumerus -40.3049 -5.32755 -89.5422
rradius 38.8558 0 0
rwrist 11.0051 0 0
rhand -26.8296 -20.2506 0
rfingers 7.12502 0 0
rthumb -0.255583 -50.2307 0
41
root 5.93441 16.8982 -28.0835 10.1495 -1.71914 -1.954
lfemur -19.906 0.853032 -19.8529
ltibia 33.2339 0 0
lfoot -35.8073 4.85688 0
ltoes 35.3926 0 0
rfemur -16.9024 6.43333 19.3921
rtibia 30.4061 0 0
rfoot -27.1867 -18.6427 0
rtoes 11.6235 0 0
lowerback -5.80039 2.30058 -0.348946
upperback -1.76675 3.07842 0.188919
thorax 1.39957 1.53916 0.599947
lowerneck -9.50375 -1.50186 2.97224
upperneck -2.87555 -2.29593 1.15186
head 0.661225 -1.15117 -0.213882
lclavicle 1.22377e-15 6.9261e-15 0
lhumerus -41.4624 -13.052 96.488
lradius 40.0618 0 0
lwrist 6.52096 0 0
lhand -11.8546 3.49492 0
lfingers 7.12502 0 0
lthumb 14.1972 32.9897 0
rclavicle 1.22377e-15 6.9261e-15 0
rhumerus -40.2629 -5.2452 -89.6574
rradius 38.8691 0 0
rwrist 10.9622 0 0
rhand -26.7828 -20.3034 0
rfingers 7.12502 0 0
rthumb -0.2103 -50.2833 0
42
root 5.92727 16.8985 -28.0841 10.1775 -1.63147 -1.96042
lfemur -20.1466 1.06782 -19.8326
ltibia 33.531 0 0
lfoot -35.5338 4.56628 0
ltoes 35.2964 0 0
rfemur -16.9148 6.30878 19.424
rtibia 30.3928 0 0
rfoot -27.1633 -18.6552 0
rtoes 11.0997 0 0
lowerback -5.79848 2.28688 -0.229604
upperback -1.74922 3.05563 0.129945
thorax 1.42684 1.52714 0.472257
lowerneck -9.50401 -1.50658 2.9778
upperneck -2.93712 -2.30161 1.21207
head 0.642532 -1.15388 -0.195871
lclavicle -1.04446e-15 6.46362e-15 0
lhumerus -41.4358 -13.1021 96.4243
lradius 40.2577 0 0
lwrist 6.62435 0 0
lhand -11.8664 3.42687 0
lfingers 7.12502 0 0
lthumb 14.1858 32.9225 0
rclavicle -1.04446e-15 6.46362e-15 0
rhumerus -40.2224 -5.13996 -89.7718
rradius 38.8989 0 0
rwrist 10.9055 0 0
rhand -26.7358 -20.3559 0
rfingers 7.12502 0 0
rthumb -0.164917 -50.3357 0
43
root 5.92012 16.8987 -28.0848 10.2066 -1.52826 -1.97555
lfemur -20.438 1.339 -19.8065
ltibia 33.9 0 0
lfoot -35.2116 4.20509 0
ltoes 35.2088 0 0
rfemur -16.9253 6.16566 19.4656
rtibia 30.3778 0 0
rfoot -27.1417 -18.6675 0
rtoes 10.5318 0 0
lowerback -5.78587 2.27459 -0.104052
upperback -1.73151 3.03465 0.0764956
thorax 1.44849 1.51594 0.346495
lowerneck -9.50682 -1.51554 2.97584
upperneck -3.00629 -2.31202 1.26983
head 0.621946 -1.159 -0.177483
lclavicle -2.5842e-15 6.16232e-15 0
lhumerus -41.4063 -13.1444 96.3548
lradius 40.4448 0 0
lwrist 6.71755 0 0
lhand -11.8725 3.35808 0
lfingers 7.12502 0 0
lthumb 14.1799 32.8541 0
rclavicle -2.5842e-15 6.16232e-15 0
rhumerus -40.1835 -5.00997 -89.8855
rradius 38.9467 0 0
rwrist 10.8337 0 0
rhand -26.6893 -20.4074 0
rfingers 7.12502 0 0
rthumb -0.120043 -50.3871 0
